<svg xmlns="http://www.w3.org/2000/svg"
    viewBox="0 0 366 366"
    role="img"
    aria-label="Minimalist H and magnifying-glass brand mark">
  <path d="M 93.50 80.00 L 93.50 285.00 L 137.50 285.00 L 138.50 225.00 L 149.50 234.00 L 164.50 240.00 L 182.50 241.00 L 198.50 237.00 L 239.50 285.00 L 272.50 285.00 L 215.50 223.00 L 222.50 216.00 L 259.50 252.00 L 259.50 81.00 L 215.50 80.00 L 213.50 152.00 L 195.50 140.00 L 168.50 137.00 L 152.50 142.00 L 138.50 153.00 L 137.50 80.00 Z M 171.50 151.00 L 181.50 151.00 L 182.50 152.00 L 185.50 152.00 L 186.50 153.00 L 191.50 154.00 L 195.50 156.00 L 198.50 159.00 L 199.50 159.00 L 206.50 166.00 L 206.50 167.00 L 208.50 169.00 L 211.50 175.00 L 212.50 180.00 L 213.50 181.00 L 213.50 187.00 L 214.50 188.00 L 214.50 190.00 L 213.50 191.00 L 213.50 197.00 L 212.50 198.00 L 212.50 201.00 L 206.50 212.00 L 199.50 219.00 L 198.50 219.00 L 196.50 221.00 L 188.50 225.00 L 186.50 225.00 L 185.50 226.00 L 180.50 226.00 L 179.50 227.00 L 167.50 226.00 L 166.50 225.00 L 161.50 224.00 L 154.50 220.00 L 144.50 210.00 L 140.50 202.00 L 139.50 196.00 L 138.50 195.00 L 138.50 183.00 L 139.50 182.00 L 139.50 179.00 L 140.50 178.00 L 141.50 173.00 L 143.50 171.00 L 144.50 168.00 L 147.50 165.00 L 147.50 164.00 L 155.50 157.00 L 163.50 153.00 L 166.50 153.00 L 167.50 152.00 L 170.50 152.00 Z" fill="#FFFFFF" fill-rule="evenodd"/>
</svg>
